<svg xmlns="http://www.w3.org/2000/svg" width="24" height="24" viewBox="0 0 24 24" fill="none" stroke="currentColor" stroke-width="2" stroke-linecap="round" stroke-linejoin="round">
    <path d="M2.5 12.553a10.974 10.974 0 0 1 19 0"/>
    <path d="M12 22.003a10.974 10.974 0 0 1-9.5-6.45"/>
    <path d="M12 22.003a10.974 10.974 0 0 0 9.5-6.45"/>
    <path d="M12 2.003a10.974 10.974 0 0 0-9.5 6.45"/>
    <path d="M12 2.003a10.974 10.974 0 0 1 9.5 6.45"/>
    <path d="M5 15.003h.01"/>
    <path d="M8 12.003h.01"/>
    <path d="M15 15.003a1 1 0 1 0 2 0 1 1 0 1 0-2 0"/>
    <path d="M15.5 12.003a.5.5 0 1 0 1 0 .5.5 0 1 0-1 0"/>
</svg>